<svg width="60" height="60" viewBox="0 0 60 60" fill="none" xmlns="http://www.w3.org/2000/svg">
<g clip-path="url(#clip0_12_436)">
<path d="M29.9989 0C13.4587 0 0 13.4576 0 30C0 46.5424 13.4587 60 29.9989 60C46.5424 60 59.9989 46.5424 59.9989 30C59.9989 13.4576 46.5424 0 29.9989 0ZM29.9989 56.0002C15.6629 56.0002 3.99978 44.3371 3.99978 30C3.99978 15.6629 15.6639 3.99978 29.9989 3.99978C44.3371 3.99978 55.9991 15.6629 55.9991 30C55.9991 44.3371 44.3382 56.0002 29.9989 56.0002Z" fill="white"/>
<path d="M44.8566 27.8282H31.9993V10.8278C31.9993 9.723 31.1037 8.82733 30 8.82733C28.8974 8.82733 28.0017 9.72408 28.0017 10.8278V31.8269H44.8566C45.9603 31.8269 46.856 30.9323 46.8549 29.8275C46.8549 28.7239 45.9582 27.8282 44.8566 27.8282Z" fill="white"/>
</g>
<defs>
<clipPath id="clip0_12_436">
<rect width="60" height="60" fill="white"/>
</clipPath>
</defs>
</svg>
