<svg width="60" height="60" viewBox="0 0 60 60" fill="none" xmlns="http://www.w3.org/2000/svg">
<path d="M25.0004 8V12.9996H32.4998V17.9993H37.4994V12.9996H44.9989V8H25.0004ZM25.0004 22.9989C24.3254 22.9989 23.6976 23.2711 23.2228 23.7211L18.9747 27.9985H12.4991C11.1243 27.9985 9.99925 29.1235 9.99925 30.4983V45.4994C9.99925 46.8742 11.1243 47.9993 12.4991 47.9993H16.7472L23.6233 52.5736C24.0239 52.8481 24.5009 52.9989 25.0004 52.9989H37.5017C38.0507 52.9989 38.575 52.8256 39.0002 52.5016L48.9995 45.0022C49.625 44.5274 50.0008 43.7759 50.0008 42.9996V25.4987C50.0008 24.1239 48.8757 22.9989 47.5009 22.9989H25.0004ZM55.0004 25.4987V40.4998H60V25.4987H55.0004ZM32.4998 28.0007V35.5002H37.4994L30 48.0015V40.5021H25.0004L32.4998 28.0007ZM0 30.5006V43.0019H4.99962V30.5006H0Z" fill="white"/>
</svg>
