<svg width="80" height="80" viewBox="0 0 80 80" fill="none" xmlns="http://www.w3.org/2000/svg">
<path d="M36.9376 3.18713L36.8768 2.53433L35.9456 1.40473L35.6608 1.32153L35.4624 1.60633L35.4944 1.94553L35.1808 2.23033L35.1488 2.62393L35.5168 2.82233L36.032 3.19033H36.9376V3.18713ZM44.1088 63.4527L43.7248 62.7231L43.2096 61.6639L42.8 60.5567L42.4992 59.3119L42.368 58.2431V57.2063L42.4768 55.9839L42.6144 55.3695L42.4512 54.8479L42.1152 54.5791L41.44 54.0799L40.9632 53.7407L40.8736 53.0879L40.6496 52.3903L40.2272 51.7055L39.7728 51.1231L39.2032 50.5791L38.48 50.0319L37.6672 49.4239L37.2352 49.2159L36.8064 49.0847L36.4448 49.1455L36.1312 49.3535L35.9936 49.6927L36.0864 50.3071L36.4 51.6831L36.944 53.4975L37.3984 54.5823L38.0064 55.9647L38.4384 56.7775L39.0976 57.9775L39.888 59.3151L40.512 60.1759L41.0336 60.8735L41.056 61.2575L40.9856 61.5711L40.6944 61.6863L39.8176 61.7311L38.2816 61.6383L37.0144 61.4751L35.9008 61.2767L34.5472 60.8927L33.8624 60.5919L33.408 60.3935L32.8928 60.3007L32.3008 60.3231L31.9872 60.4607H31.5552L30.5344 60.3007L29.952 60.1023L29.3152 60.0575L28.3008 60.0351L27.5328 59.9647H26.8256L26.128 60.0095L25.6512 60.2079L25.312 60.3007L25.1968 60.4607L25.2192 60.7775L25.5424 61.2991L26.1504 62.1375L26.512 62.2911L27.0816 62.6975L27.7344 63.0591L28.4416 63.2895L29.456 63.3119L30.3616 63.2191L31.1296 63.0431L31.7824 62.8351L32.0576 62.9727L32.1888 63.2415L32.4192 63.3119L32.9792 63.2895L33.6864 63.3375L34.048 63.4527L34.4768 63.3375L35.8752 63.5135L36.8288 63.6511L38.3872 63.9903L39.5232 64.3263L40.6464 64.7103L41.6352 65.1647L42.0192 65.4399L43.04 65.4847L43.584 65.3471L43.8752 64.7551L44.1888 64.0319L44.1088 63.4527ZM28.1344 61.1327L28.064 61.2927L27.9424 61.4399L27.8432 61.4719L27.6352 61.4783L27.4496 61.4239L27.3664 61.3535L27.2448 61.1999L27.2512 61.0623L27.3216 60.9631L27.5584 60.8863L27.8336 60.8319L28.0416 60.8255L28.1408 60.8863L28.1632 61.0015L28.1344 61.1327ZM39.1424 62.5375L39.0592 62.6463L38.7968 62.6623L38.3424 62.5855L37.9424 62.5151L37.5264 62.4927L37.1264 62.4607L36.2112 62.2303L35.488 62.0063L34.9728 61.8367L34.896 61.6895L34.9184 61.5295L35.0176 61.4911L35.6928 61.7055L35.9936 61.8271L36.3072 61.8975L36.6912 61.9519L37.328 62.0223L37.8816 62.1055L38.4032 62.1439L38.8256 62.2367L39.0624 62.2975L39.1328 62.3903V62.5375H39.1424ZM42.2784 62.0863L42.1952 62.2399L42.0416 62.3615L41.8176 62.4159L41.696 62.3615L41.6576 62.2303L41.696 62.0831L41.904 61.9295L42.0576 61.8911H42.2272L42.2816 61.9615V62.0863H42.2784Z" fill="white"/>
<path d="M67.1103 31.2769L66.7967 31.1297V31.6129L66.5439 31.8977L66.0895 32.5729L65.8367 32.7425L65.1295 33.5969L64.8447 34.0513L64.5055 34.8129L64.1375 34.8737L63.7983 34.6753L63.5967 33.7697L63.6511 32.7265L63.8815 31.7569L64.4415 30.8513L65.5775 29.1521L66.2559 27.7697L66.3391 26.8001L66.2303 26.4929L66.0319 26.6913L65.6927 27.5361L65.1775 28.3905L64.4159 29.0145L63.5391 29.8593L62.2335 31.3889L61.9807 31.3665L61.8975 31.1041L61.8655 30.4801L61.9487 29.3185L62.3487 28.0193L63.0559 26.5761L63.9935 25.4145L65.1551 24.4225L65.2639 24.1921L65.1263 24.0833L64.5343 24.3905L64.0511 24.7041L63.2287 25.4113L62.2079 26.3169L61.4783 27.3089L60.7679 28.6081L60.3775 29.6609L60.2623 30.7073L60.2079 32.1217L60.5471 33.5969L60.8863 34.8737L61.5391 36.8801L61.9615 39.2865L62.2143 41.1233V42.1153L62.1055 43.1585L61.9359 44.0129L61.6191 44.9729L60.4287 46.4705L59.2127 47.5777L57.6543 48.4545L56.1567 48.5377L55.9583 47.8081L55.4207 46.7553L54.6847 45.7409L54.2015 45.1425L53.5551 44.2657L52.1631 42.9377L50.7487 41.7761L50.1279 41.2929L48.1759 39.9713L45.3727 37.6193L43.8431 35.7217L42.1695 32.9793L41.7151 31.3345L41.8303 30.3137L42.0607 30.1153L42.6527 30.5153L43.5903 30.9697L44.3519 30.9377L45.2255 31.3377L46.1631 31.9073L46.6463 32.2977L47.2703 32.7297L47.9167 32.8129L48.0639 32.5281L47.8943 32.4961L47.6959 32.5793L47.3823 32.3809L47.1039 31.9585L46.7039 31.3057L45.9359 30.5985L45.1743 30.3137L44.7519 30.2305L44.8383 30.0065H45.4303L46.1151 30.2305L47.1071 30.8833L47.5615 31.0817L47.7311 30.8513L47.4463 30.4609L46.6783 29.7761L45.4879 29.1553L44.0511 28.5953L43.7663 28.3649L44.0511 28.1665L44.6975 28.4801L45.8879 28.6785L47.1615 29.1873L47.8367 29.5265L49.0271 29.6961L49.8815 29.5809L50.3583 29.3569L51.0111 28.9569L51.2959 28.6817L51.3279 28.4833L51.0623 28.5057L50.8095 28.7681L49.9647 29.0465L49.2287 29.1617L48.6047 29.0785L48.0063 28.6017L47.4687 27.9713L46.8223 27.4945L45.8559 27.2961L44.9247 26.9825L44.5247 26.7297L44.5567 26.5057L44.9247 26.5601H45.7471L46.5695 26.5057H47.4143L47.8687 26.4225L48.2367 26.7297L48.8287 26.8769H49.3119L49.5359 26.7073L49.1455 26.5921L48.6623 26.2785L48.1535 25.8017L47.3311 25.3697L46.6559 25.2865L46.0351 25.2033L45.8047 25.0657L46.2591 24.8129H46.9951L47.5647 24.9825L48.1247 25.2673L49.0303 25.6577L49.9359 25.6897L50.4191 25.4593L50.5567 25.1521L50.1887 24.9825L49.4271 24.9505L48.7743 24.7265L48.2079 24.2433L47.5839 23.9297L46.7615 23.7921L46.0543 23.5393L45.7471 23.1393L45.8015 22.9409L46.2559 23.0337L46.8255 23.2033L47.1647 23.4561L47.6479 23.5105L47.7023 23.2577L47.1967 22.8577L47.0495 22.4961L47.7311 22.6049L48.3775 22.9441L49.1999 23.0369L49.5167 23.6289L50.3615 24.1377L50.4063 24.1313L50.5919 24.0545L50.8159 23.9169L50.7071 23.7473L50.3903 23.7697L50.1055 23.3793L49.5359 22.5025L48.5439 21.6193L47.5295 21.1649L47.2447 20.8257L46.6207 20.0897L46.0511 19.7825L45.9679 19.4977L46.2207 19.3281L46.8191 19.4657L48.0031 19.8049L48.5727 20.0033L48.9407 20.5185L49.5327 20.8257H49.9871L50.5855 20.9953L51.2383 20.8801L51.4911 20.6561L51.1231 20.3425L50.5855 20.2049L49.9615 20.1217L49.5935 19.8081L49.1103 19.1009L48.9951 18.6465L48.3711 18.0865L47.6959 17.6545L46.9279 17.1777L46.0831 16.3873L46.0287 16.1569H46.2207L47.3279 17.0337L48.4575 17.6865L49.0559 18.1409L49.8175 18.8481L50.4991 19.2161L50.8927 19.3313L51.0911 19.0177L50.8063 18.9089L50.2143 18.3713L50.0447 17.7729L49.4239 17.0977L48.9087 16.6657L48.6559 16.0193L47.7791 14.7137L46.5887 13.6673L46.5343 13.3281L46.9567 13.3825L47.5551 13.6897L48.5151 14.0897L49.5071 14.1441L50.2431 14.4897L51.0335 14.6273L51.7087 14.4289L51.6543 14.1441L50.8863 13.9745L50.2111 13.6673L48.8511 13.0145L48.1151 12.6145L47.7215 12.1377L47.8591 11.9681L48.0575 12.1057L48.3647 12.2209L48.7647 12.2529H49.4175L49.9775 12.1921L50.8319 12.1377L51.4847 12.3905L52.1599 12.8737L52.4447 12.9569L52.4767 12.7041L52.2463 12.4737L51.5711 11.8497L50.5183 11.3121L49.7567 11.2289L48.3135 11.1457L47.9775 10.7457L47.2415 10.0097L46.4191 9.4497L46.1119 9.1649L46.3647 8.9665L46.7551 9.1361L47.4623 9.5041L48.2623 9.7889L49.3375 10.0417H50.2687L51.0367 10.8961L51.6607 11.2641L51.8847 11.0337L51.0399 9.7889L49.7119 8.8289L48.6047 8.5665L47.6671 7.5841L46.8447 7.1009L45.7151 6.8161L46.3391 6.2785L47.4463 5.9105L48.2687 5.6577L48.4607 5.4049L48.3519 5.2065L47.8975 5.0913L47.4687 5.0081L44.2719 5.0689L43.7023 4.4385L43.0559 4.0161L42.2335 3.6481L41.1583 3.4785H40.2271L39.9743 3.1393L39.0975 2.2017L38.0447 1.2417L37.3983 2.3169L37.3663 2.6561L37.6735 3.0561L37.7055 3.3953L37.4815 3.5937L36.7679 3.6481L35.4687 3.2801L34.1919 3.0049L33.5999 3.0273L32.6335 3.2257L32.7487 3.5649L33.2863 3.5425L33.5103 3.5809L33.5039 3.8817L33.1903 3.9521L32.7839 3.8977L32.1695 4.0289L31.7087 4.1761L31.3407 4.1985L31.2255 4.3585L31.3567 4.5825L31.6351 4.6433L31.8975 4.5665L32.1983 4.4353L32.5055 4.4193L33.1583 4.4513L33.6575 4.6049L34.2495 4.7521L35.1167 5.1425L35.1935 5.3281L35.1007 5.4753L34.6943 5.6225L34.4479 5.7377L34.0095 6.0289L33.3407 6.3841L32.5279 6.9601L31.5839 7.3377L30.8479 7.8209L30.1791 8.1121L29.5487 8.2657L28.9951 8.2817L28.2335 8.2977L27.9423 8.3745L27.7727 8.7297L27.6415 9.1137L27.4943 9.3761L27.1263 9.9297L26.7711 10.5441L26.5343 10.8449L26.5119 11.1905L26.5343 11.6737V12.1889L26.8479 12.4737L27.1263 12.6209L27.4559 12.5985L27.9935 12.4513L28.6015 12.2657L29.4239 11.9361L29.7535 11.9521L29.8303 12.1601L29.7535 12.3585L29.4751 12.5057L28.6367 12.8193L28.0063 13.0049L27.8847 13.2129L27.8623 13.4369L28.0703 13.6225L28.5087 13.6769H28.8639L29.3087 13.6609L29.7919 13.5457L30.4927 13.1777L30.9535 13.0849L31.3439 13.0081L31.6447 13.1073L32.0831 13.0849L32.5151 13.1393L32.8703 13.3473L33.4239 13.4017L34.1471 13.6257L34.5375 13.6801L35.1455 13.5713L35.9231 13.6257L36.2623 13.7569L36.4479 14.0705L36.4095 14.4769L36.3167 14.9761L36.1311 15.5521L35.8687 16.2753L35.6063 17.0657L35.3279 17.7889L35.1423 18.2881L34.5119 19.2705L33.7503 20.2305L33.0655 21.1745L32.1983 22.0417L31.3983 22.7169L30.8895 23.2545L30.6207 24.1377L30.2495 24.5761L29.7727 24.9153L29.1967 25.3921L28.3135 25.9297L27.5679 26.3041L27.0911 26.8481L26.7519 27.2897L26.4127 27.4977L25.9359 27.7345L25.6287 27.6641L25.0207 27.3857L24.3455 26.9473L23.3535 26.5089L22.2399 25.9265L21.6639 25.4881L20.9503 24.9121L20.1663 24.2657L19.3215 23.9585L18.5759 23.8273L17.6223 24.0257L16.9471 24.4033L16.3647 24.8097L16.0639 25.5553L15.8559 26.1313L15.6191 27.0145L15.3503 27.5521L15.0815 28.3745L15.0431 29.3569L14.8063 29.9329L14.5375 30.8481L14.3007 31.7633L13.8623 32.6177L13.6255 33.4625L13.4879 34.5153L13.1103 35.3985L12.8735 35.9041L12.8415 36.4129L12.8095 37.2673V38.7585L12.6399 39.3729L12.7391 39.9105L12.7007 40.7937L13.0079 41.5009L13.2447 41.6705L13.6831 41.5329L14.0895 41.1649L14.6719 40.4577L15.1807 39.6449L15.3791 38.9697L15.2479 38.4257L15.0783 37.7505L14.8703 36.9377L14.6719 36.0865L14.5631 35.4401V34.8321L14.7007 34.1473L15.0399 33.1009L15.3791 32.5569L15.6863 32.2817L15.9231 31.9137L16.3615 31.8753L16.5695 31.7441L16.8767 31.4657L17.2159 31.1649L17.5231 30.7585L17.6543 30.2817L17.7631 29.8753L17.7951 29.3313L17.8943 28.8545L18.1311 28.5537L18.3679 28.4833L18.6751 28.5825L19.1135 28.8193L19.5903 29.3633L20.0991 30.1089L20.6751 30.7841L21.2895 31.3281L21.8335 31.7665L22.3711 32.0033L22.5407 32.3425L22.3711 32.5121L21.7951 32.3809L20.9823 32.3105L19.9295 32.1025L18.9151 31.9041L17.6927 31.8657L16.9791 31.9041L16.4351 32.2433L15.8591 32.7489L15.3823 33.5617L15.0143 34.4833L14.9759 35.1585L15.1839 36.3809L15.6607 37.9393L15.8975 39.1617L16.1983 40.3521L16.4063 41.1905L16.5055 41.9745L16.7743 42.8577L16.9823 44.2113L17.1807 44.6881L17.6959 45.0945L18.1727 45.5713L18.7103 46.3873L19.0879 47.3409L19.6639 48.1857L20.5087 48.9985L21.1199 49.3761L21.5263 49.4081L21.8655 49.3089L22.0735 48.8321L22.3039 48.4257L22.4415 47.8497V46.5281L22.2719 46.1505C22.2399 46.1505 22.2399 45.9137 22.2399 45.8817L22.1695 45.6449L21.8911 45.2385L21.3823 44.7297L20.4383 44.3233L20.0927 44.2145L20.0319 43.6385L20.0639 43.2705L19.4175 42.5249L19.0111 41.5713L18.6719 40.2177L18.3967 38.9665L17.9295 37.9841L17.7599 36.7937L18.0287 36.0801L18.5055 35.8113H18.8735L19.4175 36.2881L20.2015 36.7649L21.0143 37.0657L22.9823 38.0193L23.9359 38.5633V39.0689L24.8127 39.5745L25.9359 39.9521H28.2783L28.1087 40.3905L28.0095 40.6273L28.3103 41.1969L28.8863 42.0513L29.8079 42.9665L30.9215 44.1889L31.8751 45.0337L33.6575 46.4001L35.1007 47.1745L36.1855 47.7505L37.5775 48.6945L38.8607 49.6097L39.9679 50.5473L41.1199 52.1057L41.1743 52.7585L41.4367 53.4337L42.1439 53.9425L42.7903 54.1953L43.1903 54.1409L43.5071 53.8337L43.9615 53.3505L44.0703 52.6977L44.6079 51.7665L44.7231 51.0529L44.8095 50.2625L44.8639 49.6385L45.0399 49.2481L45.4015 49.0721H45.7471L45.7695 49.3345L45.5167 49.6097L45.2927 50.2081L45.1231 50.5761V51.0305L45.0623 51.9905L44.9247 52.4737L44.5023 53.2033L43.9327 54.1409L43.3663 55.1617L43.0303 56.4897L42.8607 57.8817L43.0303 59.4337L43.2543 60.3393L43.7919 61.5297L44.4767 62.9441L45.0143 64.0513L45.7503 65.2129L46.6271 66.2881L46.7967 66.6561V66.9089L46.6815 67.2225L46.3743 67.7313L45.8911 68.4065L44.8991 69.6833L43.9071 70.7585L43.0015 71.7505L42.6111 71.9809L41.8111 72.2881L41.3343 72.7425L41.0815 73.2577L40.5119 73.9649L39.8687 74.6721L39.0783 75.4945L38.5951 76.3393L38.3103 77.1937L38.1407 77.9009L38.1727 78.4705L38.5119 78.8321H39.7567L40.2943 78.7777L40.8575 78.4417L41.5935 78.1025L41.7087 77.8177H41.9615L42.3519 77.6481L42.7199 77.3025L42.9215 75.9489L42.8063 75.6641L42.7519 75.3793L42.9535 75.4337L43.1743 75.4945L43.4047 75.3249L43.7727 75.0945L44.1631 74.5857L44.6463 73.9009L44.8991 73.2801L44.9535 72.7713L45.2703 72.5409L45.7247 72.2881L46.0927 72.0641L46.3999 71.4433L47.0527 70.7617L48.2719 69.6321L49.1999 69.0113L50.1375 68.4961L50.3583 68.2721L50.4447 68.0417L50.6431 67.7889L50.5055 67.4529L50.4767 66.8289L50.3519 66.2465L50.2047 65.9073L49.8815 65.3537L49.3663 64.7073L49.1135 64.2241L49.0591 63.7153V63.0337L49.1743 62.6433L49.4815 61.5905L49.7951 61.0817L50.1343 60.8833L50.7551 60.4929L51.4911 59.8625L52.4831 59.0177L53.1583 58.3105L53.8399 57.5201L54.5471 56.7201L55.0559 55.8209L55.4783 55.0529L55.8783 54.1761L56.1631 53.2065L56.2495 52.3073L56.3039 51.6225L56.5343 51.3985L56.7871 51.3377L57.0111 51.4849L57.2095 51.9617L57.2639 52.6145L57.3567 53.2353L57.2959 53.6577L57.2415 54.3105V55.7025L57.4111 56.8001L57.6095 57.0849L57.7791 57.0625L57.8623 56.8641L57.7471 56.4097V55.6417L57.9775 54.9953L58.0863 54.0577L58.2015 53.4049L58.3487 53.0977H58.5183L58.6559 53.2353L58.7935 53.7729L58.9087 54.2881L58.8543 55.1009L58.6847 56.2081L58.1695 57.2833L57.6927 58.3041L57.4079 59.1809L57.3535 59.7185L57.4079 60.3393L57.6063 60.9377H57.9743L58.1663 60.6753L58.0575 60.3905L57.9743 59.8817L58.3103 59.4273L58.7039 58.8897L58.9663 58.3841L59.5871 57.3921L60.0959 56.4865L60.3199 55.4945L60.5183 54.1889V52.8961L60.2655 51.9905L59.7567 51.2833L59.6959 50.9473L59.9263 50.8321L60.2111 50.9697L60.5791 51.4241L61.0335 52.2465L61.2255 53.2065L61.3407 54.4833L61.6255 55.3665L61.6575 55.3889L62.0479 56.2657L62.3007 56.3585L62.4159 56.1281L62.3871 55.9905L62.1951 55.3377L62.1663 54.6849L62.1951 53.7249L62.3647 52.6497V52.1121L62.3039 51.6577L61.8495 50.7489L61.4591 50.0961L61.5967 49.8433L62.1343 49.7281L62.8703 49.3921L63.6607 48.9697L64.3679 48.3489L65.2735 47.1265L65.7887 46.1121L66.2111 45.1457L66.3487 43.5937L66.3807 42.2017L66.1567 40.4801L65.8943 39.2353L65.6703 37.9585L65.5327 36.6305L65.6415 35.7857L65.8719 34.7329L66.3487 33.6865L67.0303 32.6113L67.2831 31.9265L67.3375 31.5873L67.1103 31.2769ZM28.6111 10.7841L28.3871 11.0081L28.0735 11.1841L27.6511 11.2769L27.5039 11.1841L27.4495 10.8833L27.5743 10.4609L27.8751 10.0449L28.1215 9.9233L28.3455 9.9457L28.6143 10.1697L28.7359 10.3681L28.6111 10.7841ZM29.7151 10.5089L29.6383 10.5473L29.4847 10.5537L29.3631 10.4929L29.2639 10.3777L29.2799 10.2401L29.3951 10.0545L29.4879 9.9937H29.6095L29.7183 10.0161L29.7567 10.1313L29.7727 10.3329L29.7151 10.5089ZM31.0847 11.7697L30.9695 11.8241H30.8223L30.7391 11.7793L30.6943 11.6545L30.7103 11.5009L30.7935 11.4081L30.9023 11.4017L31.0175 11.4337L31.0719 11.5169L31.1103 11.6545L31.0847 11.7697ZM33.7023 7.8049L33.5263 7.8529L33.3119 7.9073L33.0751 8.1057L32.5439 8.4289L31.8143 8.6273L31.3599 8.7425L30.9215 8.7745L30.6975 8.7521L31.0527 8.4513L31.7055 8.1377L32.3583 7.8465L32.9791 7.5553L33.2639 7.4177L33.4783 7.3857L33.6543 7.4241L33.7919 7.6481L33.7023 7.8049ZM13.9199 39.6513L13.6895 39.5969L13.5743 39.3729L13.8047 39.2577L14.0063 39.2801L14.0607 39.4785L13.9199 39.6513ZM16.8927 27.7729L16.7327 28.3713L16.5247 29.0465L16.1567 29.6161L15.9583 29.6705L15.8879 29.5169V29.2161L15.9263 28.8097L16.0735 28.0417L16.3967 27.4817L16.5663 27.2833L16.8127 27.2129L16.9055 27.3505L16.8927 27.7729ZM18.5311 25.5201L18.1631 25.6577L17.8111 25.6961L17.5967 25.6129L17.5423 25.4593L17.6031 25.2513L17.7887 25.1201L18.1727 25.0753L18.3711 25.0593L18.5087 25.0977L18.6303 25.2129L18.6367 25.3441L18.5311 25.5201ZM21.5327 29.5713L21.4559 29.5777L21.2703 29.4625L21.0111 29.3153L20.7871 29.1297L20.5791 28.9217L20.4863 28.8065L20.4639 28.6369L20.5087 28.5537L20.5855 28.5601L20.7167 28.5825L20.8639 28.7137L21.0335 28.8673L21.3023 29.0273L21.4623 29.2193L21.5615 29.3665L21.5679 29.4977L21.5327 29.5713ZM16.4863 33.6033L16.3487 33.7953L16.2111 33.8497L16.1183 33.7729L16.1247 33.4977L16.3551 33.0977L16.4255 32.9825L16.5407 32.9281L16.6495 32.9985V33.2289L16.5791 33.3889L16.4863 33.6033ZM17.4463 40.7425L17.4015 40.8129H17.3471L17.2479 40.7297L17.1711 40.5825L17.0495 40.3137L16.8735 39.9617L16.6975 39.4081L16.6047 38.8865L16.5887 38.2785L16.6719 37.6801L16.7167 37.6097H16.7999L16.8831 37.6865L16.9663 38.0481L16.9727 38.4161L17.1199 38.8833L17.2959 39.3825L17.3727 39.8209L17.4815 40.5345L17.4463 40.7425ZM20.8735 47.2801L20.9663 47.2577L21.1903 47.3057L21.2895 47.4145L21.3119 47.5457L21.2895 47.6993L21.1583 47.7985L20.9983 47.7697L20.8831 47.6609L20.8351 47.4241L20.8735 47.2801ZM23.0943 36.9313L22.8639 36.9473L22.5631 36.9025L22.3551 36.8097L21.8719 36.5089L21.3951 36.1537L20.8575 35.8305L20.6719 35.6929L20.9183 35.6865L21.1871 35.7857L21.6479 35.9009L22.0703 36.1089L22.5631 36.3233L22.9151 36.4833L23.1007 36.6529L23.1327 36.8065L23.0943 36.9313ZM25.6511 30.3073L25.3279 31.2129L25.0431 32.0801L24.5439 32.7009L24.2911 32.8929L24.0223 32.9921L23.8687 32.8833L23.8527 32.6849L24.0671 32.4545L24.2911 32.0865L24.5759 31.4657L24.7455 30.8737L24.8991 30.2913L25.1999 29.7313L25.4015 29.4465L25.5711 29.3985L25.7247 29.4593L25.7727 29.6449L25.6511 30.3073ZM37.9743 12.3361L38.2271 12.0129L38.5183 11.7377L38.7807 11.5617L38.9727 11.5457L39.1039 11.6289V11.8657L39.0335 12.1281L38.7423 12.4065L38.3967 12.6209L38.0447 12.7137L37.8751 12.6593L37.8527 12.5217L37.9743 12.3361ZM36.9471 6.3745L37.1935 6.2913L37.3631 6.2145L37.5775 6.2913L37.6479 6.4449L37.4879 6.6305L37.2639 6.7137L36.9951 6.7297L36.8959 6.5441L36.9471 6.3745ZM34.8095 8.3649L34.7103 8.0961L34.8575 7.7953L35.1807 7.5265L35.6959 7.5041L36.0735 7.5745L36.3647 7.7761L36.5119 8.1217L36.6335 8.4897L36.6111 8.8129L36.2879 8.9345H35.9423L35.5263 8.7649L35.1583 8.5665L34.8095 8.3649ZM36.0703 12.3073L35.6319 12.4065H35.2383L35.1679 12.2753L35.2671 12.1377L35.3823 12.0673L36.1503 11.5233L36.6175 11.2321L36.9023 11.0561H37.0015L37.0175 11.2641L36.8255 11.4177L36.7327 11.7345L36.4959 12.1025L36.0703 12.3073ZM30.9535 26.3521L30.8991 26.2689L30.9151 26.0609L31.0527 25.9073L31.5359 25.7089L32.5439 25.3953L33.5519 25.2705H34.1663L34.6719 25.3793L35.1487 25.6161L35.5263 25.9841L35.5487 26.1921L35.5039 26.3393L35.3439 26.3713L35.0975 26.3393L34.7199 26.2305L34.3647 26.1249L33.9263 26.0769H33.3823L32.9215 26.0705L32.5151 26.1089L32.0607 26.1857L31.6991 26.2849L31.3471 26.3617L31.1167 26.3777L30.9535 26.3521ZM37.3311 47.2033L36.8159 46.8801L35.9487 46.3041L34.6047 45.3985L34.0607 45.0305L33.4847 44.5793L32.8543 44.0033L32.3935 43.6417L31.8399 43.1041L31.4783 42.7265L31.2543 42.3809L31.1711 41.9649L31.1871 41.5809L31.3343 41.4337L31.5871 41.4497L31.9871 41.6897L32.4159 42.1057L32.7327 42.4897L33.0719 42.8289L33.4015 43.2353L33.8175 43.6897L34.2111 44.1281L35.5007 45.2481L36.2143 45.8849L36.8511 46.4609L37.3663 46.9441L37.4655 47.1041L37.5359 47.2193L37.3311 47.2033ZM37.6767 29.6385L37.5167 29.7313L37.1263 29.7377L36.8639 29.6769L36.7167 29.4849L36.5951 29.3313V29.0849L36.7871 28.8385L37.0783 28.6081L37.3535 28.5697L37.6063 28.6401L37.6831 28.7777L37.7151 29.0849L37.7535 29.4081L37.6767 29.6385ZM38.4511 16.9761L38.2911 17.5681L37.9295 18.5121L37.4463 19.3121L36.9087 20.3105L36.0479 21.5169L35.3951 22.2017L34.9407 22.3777L34.7935 22.3713L34.7711 22.2561L34.9087 21.9329L35.4623 21.0785L35.9167 20.1409L36.3231 19.3345L37.0463 17.9361L37.7311 16.8449L38.0831 16.5057L38.3519 16.4609L38.4671 16.6465L38.4511 16.9761ZM40.0287 12.8737L39.9455 13.0817L39.6447 13.4337L39.2287 13.6321L38.8127 13.8017L38.3807 13.8081H38.1119L38.0191 13.6833L38.1183 13.5073L38.3551 13.3985L38.7711 13.1969L39.2479 12.9057L39.4719 12.7457L39.8111 12.5825L40.0255 12.6369V12.8737H40.0287ZM42.2783 25.8369L42.1247 25.8817L41.9263 25.8657L41.7951 25.7345L41.8271 25.6193L41.9583 25.5265L42.1567 25.5105L42.3263 25.6481L42.3327 25.7633L42.2783 25.8369ZM42.5087 25.0849H42.2783L42.1535 25.0145V24.8449L42.2079 24.7297L42.3295 24.6913H42.4927L42.6463 24.7905L42.6623 24.9121L42.5087 25.0849ZM42.9311 23.9233L42.7743 24.0001L42.6143 24.0225L42.4447 23.9841L42.3903 23.8689V23.7313L42.5279 23.6321L42.6975 23.6001H42.8607L42.9599 23.6833L42.9823 23.8145L42.9311 23.9233ZM43.1455 22.9473L42.9375 23.0081L42.7071 23.0017L42.5855 22.9185L42.5791 22.8257L42.6175 22.6881L42.7999 22.6049L43.0015 22.5761L43.1711 22.6593L43.2319 22.8193L43.1455 22.9473ZM43.6447 21.5809L43.5295 21.7345L43.4207 21.8721L43.2063 21.9169H42.9919L42.8063 21.8241L42.7903 21.6769L42.9215 21.5393L43.0207 21.4241L43.1679 21.3697L43.4047 21.2993H43.5903L43.6735 21.3985L43.6447 21.5809ZM43.9519 20.4353L43.8527 20.5953L43.6767 20.6273L43.4911 20.6753L43.2607 20.6689L43.1615 20.5537L43.1775 20.3841L43.2543 20.2689L43.4079 20.1601L43.6447 20.1281L43.8591 20.1729L43.9519 20.3041V20.4353ZM44.2751 19.5905L44.0383 19.6897L43.8527 19.7505H43.6223L43.5295 19.7345L43.4143 19.6961L43.3535 19.5809L43.3823 19.4337L43.5359 19.2961L43.6671 19.2257L43.8143 19.1649L44.0223 19.1585L44.2239 19.2289L44.3071 19.3889L44.2751 19.5905ZM44.3071 18.2753L44.2239 18.4129L44.0767 18.5345L43.8623 18.6113L43.6095 18.6337L43.4015 18.6049L43.3471 18.4801L43.3791 18.3809L43.4623 18.3201L43.8303 18.1281L44.0063 18.0897L44.2239 18.1121L44.3071 18.1889V18.2753ZM43.5903 15.1649H43.7215L43.7919 15.1201L43.8207 14.9825L43.8495 14.8769L43.9135 14.8001L44.0287 14.7937L44.1663 14.8321L44.2911 14.9025L44.3071 15.0497L44.2911 15.2865L44.1087 15.4465L43.8687 15.5617L43.7695 15.5457L43.6703 15.5073L43.5711 15.3825L43.5551 15.2449L43.5903 15.1649ZM43.5903 14.1825V14.0673L43.6927 13.9681L43.8527 13.9073L44.0447 13.9009L44.1599 13.9393L44.1919 14.0385L44.1279 14.1377L44.0287 14.2465L43.8655 14.2849H43.6959L43.5903 14.1825ZM43.5999 17.2929L43.7375 17.2097L43.9007 17.1713L44.0607 17.1553L44.1759 17.1617L44.2207 17.2321V17.3473L44.1663 17.4689L44.0575 17.5905L43.7887 17.7057L43.6575 17.6897L43.5359 17.6513L43.5039 17.5201L43.5295 17.3729L43.5999 17.2929ZM44.2911 16.3489L44.2527 16.4481L44.0831 16.5633L43.8527 16.6465L43.7247 16.6145L43.5999 16.5441L43.5775 16.4193L43.5935 16.2657L43.6863 16.1729L43.8175 16.0801L44.0095 16.0417L44.1727 16.0353L44.2815 16.0673L44.3199 16.1761L44.2911 16.3489ZM44.3519 13.0977L44.3295 13.2289L44.2463 13.3441L44.1087 13.3985L43.9775 13.4305L43.8623 13.4465L43.7087 13.4305L43.6703 13.3377L43.7087 13.2161L43.8015 13.1329L43.9039 13.0785L44.0735 12.9633L44.2495 12.9697L44.3519 13.0977ZM44.1151 11.9681L44.2079 12.0225L44.2239 12.1537L44.2143 12.2785L44.0703 12.4097L43.9327 12.4641L43.8399 12.4481L43.7695 12.4097V12.2849L43.7759 12.1537L43.8751 12.0481L43.9679 11.9937L44.1151 11.9681ZM43.9359 11.3313L43.8975 11.4689L43.7951 11.5457L43.7023 11.6001L43.5775 11.6161L43.4783 11.5553L43.4559 11.4465L43.5007 11.3537L43.5935 11.2289L43.6863 11.1841L43.8079 11.1777L43.9103 11.2385L43.9359 11.3313ZM42.6783 8.8481L42.9023 8.8321L43.2159 8.7105L43.5007 8.6497L43.7375 8.6337L43.8591 8.7489L43.6895 9.0017L43.5199 9.0465L43.2383 9.1457L42.8703 9.3537L42.5183 9.5393L42.1119 9.7089L41.9743 9.7249L41.8591 9.6865L41.8751 9.5169L41.8143 9.3569V9.0657L41.9455 8.7361L42.1279 8.5377L42.2463 8.3841L42.3679 8.2305H42.5535L42.6815 8.3617L42.6527 8.6849L42.6783 8.8481ZM42.5471 5.7921L42.6303 5.8465L42.6015 5.9297L42.4767 6.0769L42.3071 6.0929L42.1055 6.0641L41.9903 6.0097L41.9071 5.9105L42.0063 5.8273L42.1503 5.7665L42.3743 5.7601L42.5471 5.7921ZM41.4879 4.6017L41.8719 4.5633L42.0799 4.6337L42.2431 4.7169L42.2495 4.8545L42.1119 4.9153L41.8975 4.9313L41.6895 4.9153L41.5263 4.8833L41.3887 4.7841L41.4879 4.6017ZM44.4607 44.4993L44.2751 44.6689L44.1055 44.8609L43.9359 45.2161L43.8815 45.4625L43.7663 45.5553L43.5423 45.5265L43.4335 45.3953L43.4719 44.9281L43.5935 44.3425L43.6543 44.0193L43.8015 43.6129L43.9103 43.4913L44.0703 43.4593H44.2847L44.3775 43.5457L44.5375 43.7825L44.5695 44.2369L44.4607 44.4993ZM44.8287 38.9441L43.8591 38.4353L43.3535 37.9521L42.5087 37.1073L41.7407 36.1377L41.0655 35.0401L40.5279 33.6801L40.3039 32.7425L40.4095 32.2049L40.7167 32.1217L41.0303 32.2689L41.2319 32.8289L41.4015 33.6513L41.7087 34.5057L42.5087 35.7505L43.5839 37.3345L44.8287 38.9441ZM44.8991 55.4689L44.6815 56.0673L44.5759 56.3585L44.3743 56.8129L44.2207 57.3441L44.1759 57.4977L44.1215 57.5969H43.9743L43.8591 57.2513L43.8527 56.8577L43.9359 56.3201L44.1279 55.5841L44.4447 55.1297L44.7295 54.7777L44.9823 54.7457L45.0527 54.9761L44.8991 55.4689ZM46.0191 63.5073L45.9647 63.5137L45.8655 63.4689L45.6799 63.2001L45.4047 62.7457L45.2735 62.4449L45.1967 62.0289V61.6449L45.2127 61.4145L45.2671 61.3441H45.3887L45.5199 61.3985L45.6895 61.5969L45.8143 61.9425L45.8975 62.4033L45.9039 62.7713L45.9103 62.9025L45.9807 63.0785L46.0511 63.4337L46.0191 63.5073ZM40.3423 76.7905L40.2271 77.0145L40.0895 77.2225L39.8655 77.3697L39.6511 77.4145H39.5583L39.4591 77.3377L39.4271 77.1777L39.4655 76.9761L39.5807 76.7457L39.8943 76.4321L40.1311 76.2849L40.3007 76.2785L40.3871 76.3489L40.4095 76.5089L40.3423 76.7905ZM42.4479 73.3953L42.3295 73.5553L42.1855 73.6385L42.0095 73.6993L41.8783 73.6609L41.8015 73.5233L41.8175 73.3857L41.9487 73.2225L42.2111 73.0625L42.4031 73.0305L42.4959 73.0849L42.5215 73.2225L42.4479 73.3953ZM47.1487 68.7073L46.8095 69.2065L46.3551 69.7377L45.8399 70.2369L45.2959 70.8065L44.7871 71.2673L44.3871 71.6289L44.1631 71.7761L44.0159 71.7697L43.9455 71.6545L43.9775 71.4625L44.6015 70.7713L45.4751 69.8273L46.5375 68.7585L46.7359 68.5441L47.0367 68.3521L47.1455 68.3745L47.2351 68.4897L47.1487 68.7073ZM49.1071 67.1937L49.2383 67.1457L49.4079 67.1521L49.4847 67.1905L49.4911 67.2737L49.4239 67.3825L49.2703 67.5201L49.1327 67.6737H49.0399L48.9343 67.6129L48.9087 67.4817L48.9535 67.3505L49.1071 67.1937ZM54.7775 51.7281L54.7455 51.9809L54.6687 52.2177L54.6207 52.4321L54.4607 52.5249L54.3135 52.4865L54.2399 52.3489L54.1919 51.8657L53.8687 51.4209L53.8399 51.0529L54.0223 50.8225L54.2143 50.7617L54.3999 50.7777L54.5535 50.9153L54.7295 51.1393L54.7775 51.3921V51.7281ZM64.3455 42.9473L64.3295 43.3089L64.1855 44.0993L63.9839 44.7745L63.7535 45.3665L63.4079 46.0097L63.0143 46.5633L62.4223 47.2545L61.7471 47.9009L61.4015 47.9841L61.2159 47.9009L61.1871 47.6545L61.3343 47.3249L61.5327 46.9633L61.8943 46.4865L62.2847 45.9553L62.6527 45.3793L63.0143 44.7873L63.2895 44.2113L63.4527 43.6193L63.5903 42.9441L63.6223 42.1921L63.6511 41.5169L63.6063 40.9249L63.5359 40.2401L63.4751 39.5937L63.4367 39.2321L63.6351 39.0337L63.7663 39.1041L63.8655 39.4177L64.0639 40.0385L64.2271 40.7841L64.3423 41.4977V42.9473H64.3455Z" fill="white"/>
</svg>
